0
SECTION
2
HEADER
9
$INSUNITS
70
6
0
ENDSEC
0
SECTION
2
ENTITIES
0
LWPOLYLINE
8
SOIL-DENSE-SAND
90
4
70
1
10
0
20
0
10
60
20
0
10
60
20
8
10
0
20
8
0
LWPOLYLINE
8
SOIL-STIFF-CLAY
90
4
70
1
10
0
20
8
10
60
20
8
10
60
20
22
10
0
20
22
0
LWPOLYLINE
8
SOIL-FILL
90
4
70
1
10
0
20
22
10
60
20
22
10
60
20
30
10
0
20
30
0
LWPOLYLINE
8
EXC-2
90
4
70
1
10
20
20
27
10
60
20
27
10
60
20
30
10
20
20
30
0
LWPOLYLINE
8
EXC-4
90
4
70
1
10
20
20
24
10
60
20
24
10
60
20
27
10
20
20
27
0
LWPOLYLINE
8
EXC-6
90
4
70
1
10
20
20
22
10
60
20
22
10
60
20
24
10
20
20
24
0
LWPOLYLINE
8
WALL-1
90
2
70
0
10
20
20
30
10
20
20
14
0
LINE
8
ANCHOR-3
10
20
20
28.5
11
8
21
21
0
LINE
8
ANCHOR-5
10
20
20
25.5
11
9
21
18.5
0
LWPOLYLINE
8
SURCHARGE-1
90
2
70
0
10
2
20
30
10
16
20
30
0
LWPOLYLINE
8
WATER-TABLE
90
2
70
0
10
0
20
18
10
60
20
18
0
LWPOLYLINE
8
TEXT-NOTES
90
2
70
0
10
2
20
32
10
10
20
32
0
LWPOLYLINE
8
DIM-LEVELS
90
2
70
0
10
0
20
-2
10
60
20
-2
0
ENDSEC
0
EOF
